<svg xmlns:dc="http://purl.org/dc/elements/1.1/" xmlns:cc="http://creativecommons.org/ns#" xmlns:rdf="http://www.w3.org/1999/02/22-rdf-syntax-ns#" xmlns:svg="http://www.w3.org/2000/svg" xmlns="http://www.w3.org/2000/svg" xmlns:sodipodi="http://sodipodi.sourceforge.net/DTD/sodipodi-0.dtd" xmlns:inkscape="http://www.inkscape.org/namespaces/inkscape" viewBox="0 0 580.18291 877.89675" version="1.1" x="0px" y="0px"><g transform="translate(-151.51291,-127.94528)"><path style="" d="m 407.9318,127.9453 a 67.461227,67.461227 0 0 0 -67.517,67.3955 67.461227,67.461227 0 0 0 67.517,67.5165 67.461227,67.461227 0 0 0 67.516,-67.5165 67.461227,67.461227 0 0 0 -67.516,-67.3955 z m -99.275,144.609 0,0.2421 -100.972,18.5461 c -9.992,1.7376 -16.848,10.1297 -16.848,20.1217 l 0,96.9716 c -0.125,11.1711 9.068,20.3643 20.363,20.3643 8.689,0 16.481,-5.7538 19.274,-13.6976 0.807,-1.9861 1.212,-4.1812 1.212,-6.7879 l 0,-79.7592 66.789,-12.1214 -21.697,94.9111 122.669,78.0621 27.273,-117.6996 28.364,64.9713 -8.727,82.6681 38.788,24.4854 11.395,-108.1235 c 0.248,-3.5997 -0.273,-7.1944 -1.576,-10.5456 l -52.728,-120.3659 0.242,-1.5758 -0.97,-0.2425 -37.819,-8.7272 -62.426,-14.3034 -0.242,0 -31.515,-7.1521 -0.243,0 -0.606,-0.2421 z m -149.094,72.3649 c -2.567,0.5586 -4.904,2.1857 -6.424,4.6062 -3.103,4.8408 -1.63,10.9576 3.273,14.0608 l 29.212,18.6674 0,-24.122 -18.424,-11.7578 c -2.296,-1.5515 -5.069,-2.0132 -7.637,-1.4546 z m 77.214,45.6979 0,17.5759 c 0,1.7998 -0.231,3.954 -0.728,5.94 l 335.522,213.4586 c -0.434,0 -0.777,-0.1215 -1.212,-0.1215 -31.899,0 -57.698,25.7363 -57.698,57.6981 0,1.3028 0.301,2.5756 0.364,3.8789 -14.709,8.6879 -25.273,23.5872 -27.88,41.2127 -33.327,19.5495 -56.001,55.5168 -56.001,96.8501 l 221.096,0 4,0 77.456,0 0,-81.5772 0,-31.0309 0,-148.0026 c -23.646,0 -44.533,11.2908 -58.062,28.6061 -5.586,-2.2962 -11.606,-3.5151 -18.061,-3.5151 -22.218,0 -40.84,15.0357 -46.425,35.5161 L 236.7768,390.6165 Z m 33.213,49.577 -26.91,116.366 -11.758,120.7293 c 0,2.5446 -0.461,4.8558 -1.455,7.152 l -42.909,96.4864 c -5.648,13.033 0.185,28.0502 12.97,33.6978 12.784,5.8959 28.171,0.057 33.818,-12.7277 l 46.062,-103.8805 c 1.303,-3.1029 1.993,-6.1656 2.303,-9.4549 l 6.546,-100.4868 32.243,7.3939 28.121,92.8508 c 1.49,4.8408 1.831,9.7046 1.334,14.5455 l -13.333,98.4263 c -2.048,13.8397 8.034,26.9281 22.06,28.7278 1.303,0.2483 2.213,0.2427 3.516,0.2427 12.536,0 23.601,-9.519 25.091,-22.3038 l 14.788,-109.8203 c 0.807,-4.3443 0.213,-8.9891 -1.091,-13.3334 l -26.546,-88.2445 17.94,-78.062 -122.79,-78.3046 z m 173.094,110.3049 c -0.248,10.7367 7.688,19.9094 18.424,21.2127 l 2.182,0 c 3.352,0 6.42,-0.8137 9.213,-2.3031 l -29.819,-18.9096 z" fill="#000000"/></g><text x="0" y="717.3174" fill="#000000" font-size="5px" font-weight="bold" font-family="'Helvetica Neue', Helvetica, Arial-Unicode, Arial, Sans-serif">Created by Hopkins</text><text x="0" y="722.3174" fill="#000000" font-size="5px" font-weight="bold" font-family="'Helvetica Neue', Helvetica, Arial-Unicode, Arial, Sans-serif">from the Noun Project</text></svg>